<?xml version="1.0" encoding="UTF-8" standalone="no"?>
<svg
   xmlns:dc="http://purl.org/dc/elements/1.1/"
   xmlns:cc="http://creativecommons.org/ns#"
   xmlns:rdf="http://www.w3.org/1999/02/22-rdf-syntax-ns#"
   xmlns:svg="http://www.w3.org/2000/svg"
   xmlns="http://www.w3.org/2000/svg"
   xmlns:sodipodi="http://sodipodi.sourceforge.net/DTD/sodipodi-0.dtd"
   xmlns:inkscape="http://www.inkscape.org/namespaces/inkscape"
   enable-background="new 0 0 500 500"
   height="500px"
   id="Layer_1"
   version="1.1"
   viewBox="0 0 500 500"
   width="500px"
   x="0px"
   xml:space="preserve"
   y="0px"
   inkscape:version="0.48.4 r9939"
   sodipodi:docname="arrow.svg"><metadata
     id="metadata9"><rdf:RDF><cc:Work
         rdf:about=""><dc:format>image/svg+xml</dc:format><dc:type
           rdf:resource="http://purl.org/dc/dcmitype/StillImage" /></cc:Work></rdf:RDF></metadata><defs
     id="defs7" /><sodipodi:namedview
     pagecolor="#ffffff"
     bordercolor="#666666"
     borderopacity="1"
     objecttolerance="10"
     gridtolerance="10"
     guidetolerance="10"
     inkscape:pageopacity="0"
     inkscape:pageshadow="2"
     inkscape:window-width="1920"
     inkscape:window-height="1018"
     id="namedview5"
     showgrid="false"
     inkscape:zoom="1.3350176"
     inkscape:cx="120.52804"
     inkscape:cy="224.51479"
     inkscape:window-x="-8"
     inkscape:window-y="-8"
     inkscape:window-maximized="1"
     inkscape:current-layer="Layer_1" /><path
     clip-rule="evenodd"
     d="M410.557,349.186c-1.081,7.451-4.543,14.638-10.256,20.362  c-14.179,14.168-37.166,14.168-51.337,0l-25.711-25.715c-7.092-7.087-18.635-7.087-25.715,0l-86.219,86.127  c-14.177,14.267-37.162,14.267-51.336,0l-89.946-89.94c-14.261-14.18-14.261-37.166,0-51.338l86.131-86.222  c7.083-7.089,7.083-18.623,0-25.712l-25.713-25.713c-14.174-14.17-14.174-37.158,0-51.328c5.728-5.722,12.901-9.173,20.35-10.265  l245.583-31.444c25.26,0,45.614,20.354,45.614,45.614L410.557,349.186z"
     fill="#010101"
     fill-rule="evenodd"
     id="path3"
     style="fill:#fac201;fill-opacity:1" /></svg>